# xmcd
#
# Track frame offsets:
#	150
#	10046
#	20618
#	30750
#	41491
#	51627
#	72499
#	84941
#	96913
#	112525
#	122524
#	140058
#	159484
#	172285
#	185330
#	194508
#	208336
#	225799
#	240768
#	253121
#
# Disc length: 3539 seconds
#
# Revision: 0
# Processed by: cddbd v1.5.2PL0 Copyright (c) Steve Scherf et al.
# Submitted via: EasyCDDAExtractor 2011.3.0.0
#
DISCID=040dd114
DTITLE=RAY CHARLES - The Very Best Of Ray Charles CD 2
DYEAR=2014
DGENRE=Blues
TTITLE0=Bye Bye Love
TTITLE1=I'm Moving On
TTITLE2=Fuedin and Fighting
TTITLE3=Carrying That Load
TTITLE4=Yes Indeed
TTITLE5=Ev'ry Time We Say Goodbye
TTITLE6=My Bonnie
TTITLE7=Move It On Over
TTITLE8=Night Time Is The Right Time
TTITLE9=Sticks And Stones
TTITLE10=The Man With The Weird Beard
TTITLE11=Guess I'll Hang My Tears Out To Dry
TTITLE12=Unchain My Heart
TTITLE13=I Had A Dream
TTITLE14=Tell All The World About You
TTITLE15=Tell the Truth
TTITLE16=Ruby
TTITLE17=Smack Dab In The Middle
TTITLE18=That's Enough
TTITLE19=Early In The Morning
EXTD=
EXTT0=
EXTT1=
EXTT2=
EXTT3=
EXTT4=
EXTT5=
EXTT6=
EXTT7=
EXTT8=
EXTT9=
EXTT10=
EXTT11=
EXTT12=
EXTT13=
EXTT14=
EXTT15=
EXTT16=
EXTT17=
EXTT18=
EXTT19=
PLAYORDER=
